# xmcd
#
# Track frame offsets:
#	150
#	9959
#	30776
#	57529
#	83757
#	106284
#	125704
#	148425
#	167353
#	182394
#
# Disc length: 2486 seconds
#
# Revision: 0
# Processed by: cddbd v1.5.2PL0 Copyright (c) Steve Scherf et al.
# Submitted via: audiograbber 1.83.01
#
DISCID=7709b40a
DTITLE=Adgar - Más Allá Del Sol
DYEAR=2004
DGENRE=Heavy Metal
TTITLE0=Obertura Nórdica
TTITLE1=El Ángel Negro
TTITLE2=Acero Y Sangre
TTITLE3=Deprisa
TTITLE4=En La Noche
TTITLE5=Cómo Una Estrella
TTITLE6=Más Allá Del Sol
TTITLE7=El Dios Del Metal
TTITLE8=Vive En Un Sueno
TTITLE9=Último Atardecer
EXTD=
EXTT0=
EXTT1=
EXTT2=
EXTT3=
EXTT4=
EXTT5=
EXTT6=
EXTT7=
EXTT8=
EXTT9=
PLAYORDER=
